<svg xmlns="http://www.w3.org/2000/svg" width="1920" height="1080" viewBox="0 0 1920 1080">
  <defs>
    <radialGradient id="plateGradient" cx="50%" cy="50%" r="50%">
      <stop offset="0%" style="stop-color:#8B4513;stop-opacity:1" />
      <stop offset="100%" style="stop-color:#654321;stop-opacity:1" />
    </radialGradient>
    <radialGradient id="tajineGradient" cx="50%" cy="30%" r="60%">
      <stop offset="0%" style="stop-color:#D2691E;stop-opacity:1" />
      <stop offset="100%" style="stop-color:#A0522D;stop-opacity:1" />
    </radialGradient>
    <pattern id="moroccanPattern" patternUnits="userSpaceOnUse" width="40" height="40">
      <rect width="40" height="40" fill="#1a2332" opacity="0.1"/>
      <path d="M20 0 L40 20 L20 40 L0 20 Z" fill="#d4af37" opacity="0.1"/>
    </pattern>
  </defs>
  
  <!-- Background -->
  <rect width="1920" height="1080" fill="url(#moroccanPattern)"/>
  
  <!-- Atmospheric gradient overlay -->
  <rect width="1920" height="1080" fill="url(#gradient1)"/>
  <defs>
    <linearGradient id="gradient1" x1="0%" y1="0%" x2="100%" y2="100%">
      <stop offset="0%" style="stop-color:#1a2332;stop-opacity:0.7" />
      <stop offset="50%" style="stop-color:#2c3e50;stop-opacity:0.5" />
      <stop offset="100%" style="stop-color:#1a2332;stop-opacity:0.8" />
    </linearGradient>
  </defs>
  
  <!-- Tagine silhouette (main focal point) -->
  <g transform="translate(960, 540)">
    <!-- Tagine base -->
    <ellipse cx="0" cy="80" rx="200" ry="40" fill="url(#plateGradient)" opacity="0.3"/>
    
    <!-- Tagine body -->
    <path d="M -150 80 Q -150 -50 -100 -100 L 100 -100 Q 150 -50 150 80 Z" 
          fill="url(#tajineGradient)" opacity="0.4"/>
    
    <!-- Tagine lid -->
    <path d="M -100 -100 Q 0 -200 100 -100" 
          fill="#d4af37" opacity="0.3"/>
    
    <!-- Tagine handle -->
    <circle cx="0" cy="-180" r="15" fill="#d4af37" opacity="0.4"/>
  </g>
  
  <!-- Decorative elements -->
  <!-- Left side ornaments -->
  <g transform="translate(200, 300)" opacity="0.2">
    <circle cx="0" cy="0" r="30" fill="#d4af37"/>
    <circle cx="0" cy="0" r="20" fill="none" stroke="#fff" stroke-width="2"/>
    <path d="M -15 -15 L 15 15 M 15 -15 L -15 15" stroke="#fff" stroke-width="2"/>
  </g>
  
  <!-- Right side ornaments -->
  <g transform="translate(1720, 700)" opacity="0.2">
    <circle cx="0" cy="0" r="25" fill="#d4af37"/>
    <circle cx="0" cy="0" r="15" fill="none" stroke="#fff" stroke-width="2"/>
    <polygon points="0,-10 8,5 -8,5" fill="#fff"/>
  </g>
  
  <!-- Top ornaments -->
  <g transform="translate(1400, 150)" opacity="0.15">
    <circle cx="0" cy="0" r="20" fill="#d4af37"/>
    <circle cx="0" cy="0" r="12" fill="none" stroke="#fff" stroke-width="1"/>
  </g>
  
  <!-- Spice elements (small circles representing spices) -->
  <g opacity="0.1">
    <circle cx="300" cy="200" r="3" fill="#d4af37"/>
    <circle cx="350" cy="180" r="2" fill="#d4af37"/>
    <circle cx="280" cy="240" r="2" fill="#d4af37"/>
    <circle cx="1600" cy="300" r="3" fill="#d4af37"/>
    <circle cx="1650" cy="320" r="2" fill="#d4af37"/>
    <circle cx="1580" cy="280" r="2" fill="#d4af37"/>
    <circle cx="200" cy="800" r="2" fill="#d4af37"/>
    <circle cx="250" cy="820" r="3" fill="#d4af37"/>
    <circle cx="1700" cy="900" r="2" fill="#d4af37"/>
  </g>
  
  <!-- Subtle texture overlay -->
  <rect width="1920" height="1080" fill="url(#texture)" opacity="0.1"/>
  <defs>
    <filter id="noise">
      <feTurbulence baseFrequency="0.9" numOctaves="1" stitchTiles="stitch"/>
      <feColorMatrix type="saturate" values="0"/>
    </filter>
    <pattern id="texture" patternUnits="userSpaceOnUse" width="100" height="100">
      <rect width="100" height="100" filter="url(#noise)" opacity="0.5"/>
    </pattern>
  </defs>
</svg>
