<svg xmlns="http://www.w3.org/2000/svg" width="1920" height="1080" viewBox="0 0 1920 1080">
  <defs>
    <!-- Gradient pour le tagine -->
    <radialGradient id="tajineGrad" cx="50%" cy="40%" r="60%">
      <stop offset="0%" style="stop-color:#CD853F;stop-opacity:1" />
      <stop offset="70%" style="stop-color:#A0522D;stop-opacity:1" />
      <stop offset="100%" style="stop-color:#8B4513;stop-opacity:1" />
    </radialGradient>
    
    <!-- Gradient pour les épices -->
    <radialGradient id="spiceGrad" cx="30%" cy="30%" r="50%">
      <stop offset="0%" style="stop-color:#DAA520;stop-opacity:1" />
      <stop offset="100%" style="stop-color:#B8860B;stop-opacity:1" />
    </radialGradient>
    
    <!-- Pattern marocain -->
    <pattern id="moroccanTile" patternUnits="userSpaceOnUse" width="60" height="60">
      <rect width="60" height="60" fill="#1a2332" opacity="0.05"/>
      <path d="M30 10 L50 30 L30 50 L10 30 Z" fill="#d4af37" opacity="0.08"/>
      <circle cx="30" cy="30" r="3" fill="#d4af37" opacity="0.1"/>
    </pattern>
    
    <!-- Effet de vapeur -->
    <filter id="steam">
      <feTurbulence baseFrequency="0.1" numOctaves="2" result="noise"/>
      <feDisplacementMap in="SourceGraphic" in2="noise" scale="20"/>
      <feGaussianBlur stdDeviation="2"/>
    </filter>
  </defs>
  
  <!-- Fond avec pattern marocain -->
  <rect width="1920" height="1080" fill="url(#moroccanTile)"/>
  
  <!-- Overlay de couleur -->
  <rect width="1920" height="1080" fill="#1a2332" opacity="0.6"/>
  
  <!-- Table en bois (surface) -->
  <ellipse cx="960" cy="900" rx="800" ry="150" fill="#8B4513" opacity="0.2"/>
  
  <!-- Tagine principal (centre) -->
  <g transform="translate(960, 500)">
    <!-- Ombre du tagine -->
    <ellipse cx="10" cy="180" rx="180" ry="30" fill="#000" opacity="0.3"/>
    
    <!-- Base du tagine -->
    <ellipse cx="0" cy="150" rx="170" ry="25" fill="url(#tajineGrad)"/>
    
    <!-- Corps du tagine -->
    <path d="M -150 150 Q -150 50 -120 0 Q -60 -30 0 -30 Q 60 -30 120 0 Q 150 50 150 150 Z" 
          fill="url(#tajineGrad)" opacity="0.9"/>
    
    <!-- Couvercle conique -->
    <path d="M -120 0 Q -60 -120 0 -140 Q 60 -120 120 0" 
          fill="#D2691E" opacity="0.8"/>
    
    <!-- Poignée du couvercle -->
    <ellipse cx="0" cy="-140" rx="12" ry="8" fill="#B8860B"/>
    <ellipse cx="0" cy="-140" rx="8" ry="5" fill="#DAA520"/>
    
    <!-- Reflets sur le tagine -->
    <ellipse cx="-50" cy="50" rx="20" ry="40" fill="#fff" opacity="0.2"/>
    <ellipse cx="40" cy="-50" rx="15" ry="30" fill="#fff" opacity="0.15"/>
  </g>
  
  <!-- Vapeur qui s'élève -->
  <g opacity="0.3">
    <path d="M 940 300 Q 945 280 950 260 Q 955 240 960 220 Q 965 200 970 180" 
          stroke="#fff" stroke-width="2" fill="none" opacity="0.4" filter="url(#steam)"/>
    <path d="M 960 310 Q 965 290 970 270 Q 975 250 980 230 Q 985 210 990 190" 
          stroke="#fff" stroke-width="1.5" fill="none" opacity="0.3" filter="url(#steam)"/>
    <path d="M 980 305 Q 985 285 990 265 Q 995 245 1000 225 Q 1005 205 1010 185" 
          stroke="#fff" stroke-width="1" fill="none" opacity="0.2" filter="url(#steam)"/>
  </g>
  
  <!-- Bols d'épices autour -->
  <!-- Bol 1 (gauche) -->
  <g transform="translate(600, 600)">
    <ellipse cx="0" cy="0" rx="40" ry="8" fill="#8B4513"/>
    <ellipse cx="0" cy="-5" rx="35" ry="25" fill="url(#spiceGrad)"/>
    <!-- Épices dans le bol -->
    <ellipse cx="0" cy="-8" rx="30" ry="20" fill="#FF4500"/>
  </g>
  
  <!-- Bol 2 (droite) -->
  <g transform="translate(1320, 580)">
    <ellipse cx="0" cy="0" rx="35" ry="7" fill="#8B4513"/>
    <ellipse cx="0" cy="-4" rx="30" ry="20" fill="url(#spiceGrad)"/>
    <!-- Épices dans le bol -->
    <ellipse cx="0" cy="-7" rx="25" ry="15" fill="#FFD700"/>
  </g>
  
  <!-- Bol 3 (arrière) -->
  <g transform="translate(1100, 400)">
    <ellipse cx="0" cy="0" rx="30" ry="6" fill="#8B4513"/>
    <ellipse cx="0" cy="-3" rx="25" ry="15" fill="url(#spiceGrad)"/>
    <!-- Épices dans le bol -->
    <ellipse cx="0" cy="-6" rx="20" ry="12" fill="#32CD32"/>
  </g>
  
  <!-- Pain marocain (khubz) -->
  <g transform="translate(750, 720)">
    <ellipse cx="0" cy="0" rx="80" ry="15" fill="#DEB887"/>
    <ellipse cx="0" cy="-10" rx="75" ry="25" fill="#F4A460"/>
    <!-- Texture du pain -->
    <circle cx="-20" cy="-8" r="3" fill="#CD853F" opacity="0.5"/>
    <circle cx="15" cy="-5" r="2" fill="#CD853F" opacity="0.5"/>
    <circle cx="-5" cy="-12" r="2" fill="#CD853F" opacity="0.5"/>
  </g>
  
  <!-- Théière (à droite) -->
  <g transform="translate(1400, 700)">
    <!-- Corps de la théière -->
    <ellipse cx="0" cy="0" rx="50" ry="30" fill="#C0C0C0"/>
    <!-- Bec verseur -->
    <path d="M 40 -5 Q 60 -10 70 -5 Q 75 0 70 5" fill="#C0C0C0"/>
    <!-- Anse -->
    <path d="M -35 -10 Q -55 -10 -55 10 Q -55 20 -40 20" 
          stroke="#C0C0C0" stroke-width="4" fill="none"/>
    <!-- Couvercle -->
    <ellipse cx="0" cy="-25" rx="35" ry="8" fill="#B8B8B8"/>
    <!-- Poignée du couvercle -->
    <circle cx="0" cy="-30" r="3" fill="#DAA520"/>
  </g>
  
  <!-- Verres à thé -->
  <g transform="translate(1200, 750)">
    <!-- Verre 1 -->
    <rect x="-15" y="-20" width="30" height="40" rx="15" fill="#90EE90" opacity="0.6"/>
    <ellipse cx="0" cy="20" rx="15" ry="3" fill="#228B22" opacity="0.8"/>
    
    <!-- Verre 2 -->
    <g transform="translate(50, 0)">
      <rect x="-12" y="-18" width="24" height="36" rx="12" fill="#90EE90" opacity="0.6"/>
      <ellipse cx="0" cy="18" rx="12" ry="2" fill="#228B22" opacity="0.8"/>
    </g>
  </g>
  
  <!-- Éléments décoratifs (motifs marocains) -->
  <!-- Coin supérieur gauche -->
  <g transform="translate(150, 150)" opacity="0.15">
    <path d="M 0 0 L 50 0 L 25 25 Z" fill="#d4af37"/>
    <path d="M 0 50 L 50 50 L 25 25 Z" fill="#d4af37"/>
    <path d="M 0 0 L 0 50 L 25 25 Z" fill="#d4af37"/>
    <path d="M 50 0 L 50 50 L 25 25 Z" fill="#d4af37"/>
    <circle cx="25" cy="25" r="8" fill="#fff"/>
  </g>
  
  <!-- Coin supérieur droit -->
  <g transform="translate(1720, 150)" opacity="0.15">
    <circle cx="0" cy="0" r="30" fill="none" stroke="#d4af37" stroke-width="2"/>
    <circle cx="0" cy="0" r="20" fill="none" stroke="#d4af37" stroke-width="1"/>
    <circle cx="0" cy="0" r="10" fill="#d4af37"/>
  </g>
  
  <!-- Particules d'épices volantes -->
  <g opacity="0.2">
    <circle cx="400" cy="300" r="1" fill="#d4af37"/>
    <circle cx="450" cy="280" r="0.5" fill="#d4af37"/>
    <circle cx="380" cy="320" r="1.5" fill="#d4af37"/>
    <circle cx="1500" cy="400" r="1" fill="#d4af37"/>
    <circle cx="1520" cy="380" r="0.5" fill="#d4af37"/>
    <circle cx="1480" cy="420" r="1" fill="#d4af37"/>
  </g>
  
  <!-- Overlay final pour unifier l'ambiance -->
  <rect width="1920" height="1080" fill="url(#finalOverlay)"/>
  <defs>
    <linearGradient id="finalOverlay" x1="0%" y1="0%" x2="100%" y2="100%">
      <stop offset="0%" style="stop-color:#1a2332;stop-opacity:0.3" />
      <stop offset="50%" style="stop-color:transparent;stop-opacity:0" />
      <stop offset="100%" style="stop-color:#1a2332;stop-opacity:0.4" />
    </linearGradient>
  </defs>
</svg>
